<svg width="250" height="212" viewBox="0 0 250 212" fill="none" xmlns="http://www.w3.org/2000/svg">
<g clip-path="url(#clip0_3498_11)">
<rect width="250" height="212" fill="#1C1C1C"/>
<line y1="5.5" x2="250" y2="5.5" stroke="#06FC99" stroke-opacity="0.1"/>
<line y1="10.5" x2="250" y2="10.5" stroke="#06FC99" stroke-opacity="0.1"/>
<line y1="15.5" x2="250" y2="15.5" stroke="#06FC99" stroke-opacity="0.1"/>
<line y1="20.5" x2="250" y2="20.5" stroke="#06FC99" stroke-opacity="0.1"/>
<line y1="25.5" x2="250" y2="25.5" stroke="#06FC99" stroke-opacity="0.1"/>
<line y1="30.5" x2="250" y2="30.5" stroke="#06FC99" stroke-opacity="0.1"/>
<line y1="35.5" x2="250" y2="35.5" stroke="#06FC99" stroke-opacity="0.1"/>
<line y1="40.5" x2="250" y2="40.5" stroke="#06FC99" stroke-opacity="0.1"/>
<line y1="45.5" x2="250" y2="45.5" stroke="#06FC99" stroke-opacity="0.1"/>
<line y1="50.5" x2="250" y2="50.5" stroke="#06FC99" stroke-opacity="0.1"/>
<line y1="55.5" x2="250" y2="55.5" stroke="#06FC99" stroke-opacity="0.1"/>
<line y1="60.5" x2="250" y2="60.5" stroke="#06FC99" stroke-opacity="0.1"/>
<line y1="65.5" x2="250" y2="65.5" stroke="#06FC99" stroke-opacity="0.1"/>
<line y1="70.5" x2="250" y2="70.5" stroke="#06FC99" stroke-opacity="0.1"/>
<line y1="75.5" x2="250" y2="75.5" stroke="#06FC99" stroke-opacity="0.1"/>
<line y1="80.5" x2="250" y2="80.5" stroke="#06FC99" stroke-opacity="0.1"/>
<line y1="85.5" x2="250" y2="85.5" stroke="#06FC99" stroke-opacity="0.1"/>
<line y1="90.5" x2="250" y2="90.5" stroke="#06FC99" stroke-opacity="0.1"/>
<line y1="95.5" x2="250" y2="95.5" stroke="#06FC99" stroke-opacity="0.1"/>
<line y1="100.5" x2="250" y2="100.5" stroke="#06FC99" stroke-opacity="0.1"/>
<line y1="105.5" x2="250" y2="105.5" stroke="#06FC99" stroke-opacity="0.1"/>
<line y1="110.5" x2="250" y2="110.5" stroke="#06FC99" stroke-opacity="0.1"/>
<line y1="115.5" x2="250" y2="115.5" stroke="#06FC99" stroke-opacity="0.1"/>
<line y1="120.5" x2="250" y2="120.5" stroke="#06FC99" stroke-opacity="0.1"/>
<line y1="125.5" x2="250" y2="125.5" stroke="#06FC99" stroke-opacity="0.1"/>
<line y1="130.5" x2="250" y2="130.5" stroke="#06FC99" stroke-opacity="0.1"/>
<line y1="135.5" x2="250" y2="135.5" stroke="#06FC99" stroke-opacity="0.1"/>
<line y1="140.5" x2="250" y2="140.5" stroke="#06FC99" stroke-opacity="0.1"/>
<line y1="145.5" x2="250" y2="145.5" stroke="#06FC99" stroke-opacity="0.1"/>
<line y1="150.5" x2="250" y2="150.5" stroke="#06FC99" stroke-opacity="0.1"/>
<line y1="155.5" x2="250" y2="155.5" stroke="#06FC99" stroke-opacity="0.1"/>
<line y1="160.5" x2="250" y2="160.5" stroke="#06FC99" stroke-opacity="0.1"/>
<line y1="165.5" x2="250" y2="165.5" stroke="#06FC99" stroke-opacity="0.1"/>
<line y1="170.5" x2="250" y2="170.5" stroke="#06FC99" stroke-opacity="0.1"/>
<line y1="175.5" x2="250" y2="175.5" stroke="#06FC99" stroke-opacity="0.1"/>
<line y1="180.5" x2="250" y2="180.5" stroke="#06FC99" stroke-opacity="0.1"/>
<line y1="185.5" x2="250" y2="185.5" stroke="#06FC99" stroke-opacity="0.1"/>
<line y1="190.5" x2="250" y2="190.5" stroke="#06FC99" stroke-opacity="0.1"/>
<line y1="195.5" x2="250" y2="195.5" stroke="#06FC99" stroke-opacity="0.1"/>
<line y1="200.5" x2="250" y2="200.5" stroke="#06FC99" stroke-opacity="0.1"/>
<line y1="205.5" x2="250" y2="205.5" stroke="#06FC99" stroke-opacity="0.1"/>
<line y1="210.5" x2="250" y2="210.5" stroke="#06FC99" stroke-opacity="0.1"/>
<path fill-rule="evenodd" clip-rule="evenodd" d="M173 54V157H77V156.999H95V138.823H77V72.1765H95V54H173ZM109.999 72.1773H154.999V90.3538H109.999V72.1773ZM154.999 123.677H109.999V90.3546H91.9991V123.678H109.999V141.854H154.999V123.677Z" fill="#06FC99"/>
</g>
<defs>
<clipPath id="clip0_3498_11">
<rect width="250" height="212" fill="white"/>
</clipPath>
</defs>
</svg>
